<?xml version="1.0" encoding="UTF-8" standalone="no"?>
<!DOCTYPE svg PUBLIC "-//W3C//DTD SVG 1.1//EN"
 "http://www.w3.org/Graphics/SVG/1.1/DTD/svg11.dtd">
<!-- Generated by graphviz version 2.38.0 (20140413.2041)
 -->
<!-- Title: snakes_ladders Pages: 1 -->
<svg width="100%" height="100%" xmlns="http://www.w3.org/2000/svg" xmlns:xlink="http://www.w3.org/1999/xlink">
<script type="text/ecmascript"><![CDATA[
/** 
 *  SVGPan library 1.2.1
 * ======================
 *
 * Given an unique existing element with id "viewport" (or when missing, the first g 
 * element), including the the library into any SVG adds the following capabilities:
 *
 *  - Mouse panning
 *  - Mouse zooming (using the wheel)
 *  - Object dragging
 *
 * You can configure the behaviour of the pan/zoom/drag with the variables
 * listed in the CONFIGURATION section of this file.
 *
 * Known issues:
 *
 *  - Zooming (while panning) on Safari has still some issues
 *
 * Releases:
 *
 * 1.2.1, Mon Jul  4 00:33:18 CEST 2011, Andrea Leofreddi
 *	- Fixed a regression with mouse wheel (now working on Firefox 5)
 *	- Working with viewBox attribute (#4)
 *	- Added "use strict;" and fixed resulting warnings (#5)
 *	- Added configuration variables, dragging is disabled by default (#3)
 *
 * 1.2, Sat Mar 20 08:42:50 GMT 2010, Zeng Xiaohui
 *	Fixed a bug with browser mouse handler interaction
 *
 * 1.1, Wed Feb  3 17:39:33 GMT 2010, Zeng Xiaohui
 *	Updated the zoom code to support the mouse wheel on Safari/Chrome
 *
 * 1.0, Andrea Leofreddi
 *	First release
 *
 * This code is licensed under the following BSD license:
 *
 * Copyright 2009-2010 Andrea Leofreddi <a.leofreddi@itcharm.com>. All rights reserved.
 * 
 * Redistribution and use in source and binary forms, with or without modification, are
 * permitted provided that the following conditions are met:
 * 
 *    1. Redistributions of source code must retain the above copyright notice, this list of
 *       conditions and the following disclaimer.
 * 
 *    2. Redistributions in binary form must reproduce the above copyright notice, this list
 *       of conditions and the following disclaimer in the documentation and/or other materials
 *       provided with the distribution.
 * 
 * THIS SOFTWARE IS PROVIDED BY Andrea Leofreddi ``AS IS'' AND ANY EXPRESS OR IMPLIED
 * WARRANTIES, INCLUDING, BUT NOT LIMITED TO, THE IMPLIED WARRANTIES OF MERCHANTABILITY AND
 * FITNESS FOR A PARTICULAR PURPOSE ARE DISCLAIMED. IN NO EVENT SHALL Andrea Leofreddi OR
 * CONTRIBUTORS BE LIABLE FOR ANY DIRECT, INDIRECT, INCIDENTAL, SPECIAL, EXEMPLARY, OR
 * CONSEQUENTIAL DAMAGES (INCLUDING, BUT NOT LIMITED TO, PROCUREMENT OF SUBSTITUTE GOODS OR
 * SERVICES; LOSS OF USE, DATA, OR PROFITS; OR BUSINESS INTERRUPTION) HOWEVER CAUSED AND ON
 * ANY THEORY OF LIABILITY, WHETHER IN CONTRACT, STRICT LIABILITY, OR TORT (INCLUDING
 * NEGLIGENCE OR OTHERWISE) ARISING IN ANY WAY OUT OF THE USE OF THIS SOFTWARE, EVEN IF
 * ADVISED OF THE POSSIBILITY OF SUCH DAMAGE.
 * 
 * The views and conclusions contained in the software and documentation are those of the
 * authors and should not be interpreted as representing official policies, either expressed
 * or implied, of Andrea Leofreddi.
 */

"use strict";

/// CONFIGURATION 
/// ====>

var enablePan = 1; // 1 or 0: enable or disable panning (default enabled)
var enableZoom = 1; // 1 or 0: enable or disable zooming (default enabled)
var enableDrag = 0; // 1 or 0: enable or disable dragging (default disabled)

/// <====
/// END OF CONFIGURATION 

var root = document.documentElement;

var state = 'none', svgRoot, stateTarget, stateOrigin, stateTf;

setupHandlers(root);

/**
 * Register handlers
 */
function setupHandlers(root){
	setAttributes(root, {
		"onmouseup" : "handleMouseUp(evt)",
		"onmousedown" : "handleMouseDown(evt)",
		"onmousemove" : "handleMouseMove(evt)",
		//"onmouseout" : "handleMouseUp(evt)", // Decomment this to stop the pan functionality when dragging out of the SVG element
	});

	if(navigator.userAgent.toLowerCase().indexOf('webkit') >= 0)
		window.addEventListener('mousewheel', handleMouseWheel, false); // Chrome/Safari
	else
		window.addEventListener('DOMMouseScroll', handleMouseWheel, false); // Others
}

/**
 * Retrieves the root element for SVG manipulation. The element is then cached into the svgRoot global variable.
 */
function getRoot(root) {
	if(typeof(svgRoot) == "undefined") {
		var g = null;

		g = root.getElementById("viewport");

		if(g == null)
			g = root.getElementsByTagName('g')[0];

		if(g == null)
			alert('Unable to obtain SVG root element');

		setCTM(g, g.getCTM());

		g.removeAttribute("viewBox");

		svgRoot = g;
	}

	return svgRoot;
}

/**
 * Instance an SVGPoint object with given event coordinates.
 */
function getEventPoint(evt) {
	var p = root.createSVGPoint();

	p.x = evt.clientX;
	p.y = evt.clientY;

	return p;
}

/**
 * Sets the current transform matrix of an element.
 */
function setCTM(element, matrix) {
	var s = "matrix(" + matrix.a + "," + matrix.b + "," + matrix.c + "," + matrix.d + "," + matrix.e + "," + matrix.f + ")";

	element.setAttribute("transform", s);
}

/**
 * Dumps a matrix to a string (useful for debug).
 */
function dumpMatrix(matrix) {
	var s = "[ " + matrix.a + ", " + matrix.c + ", " + matrix.e + "\n  " + matrix.b + ", " + matrix.d + ", " + matrix.f + "\n  0, 0, 1 ]";

	return s;
}

/**
 * Sets attributes of an element.
 */
function setAttributes(element, attributes){
	for (var i in attributes)
		element.setAttributeNS(null, i, attributes[i]);
}

/**
 * Handle mouse wheel event.
 */
function handleMouseWheel(evt) {
	if(!enableZoom)
		return;

	if(evt.preventDefault)
		evt.preventDefault();

	evt.returnValue = false;

	var svgDoc = evt.target.ownerDocument;

	var delta;

	if(evt.wheelDelta)
		delta = evt.wheelDelta / 3600; // Chrome/Safari
	else
		delta = evt.detail / -90; // Mozilla

	var z = 1 + delta; // Zoom factor: 0.9/1.1

	var g = getRoot(svgDoc);
	
	var p = getEventPoint(evt);

	p = p.matrixTransform(g.getCTM().inverse());

	// Compute new scale matrix in current mouse position
	var k = root.createSVGMatrix().translate(p.x, p.y).scale(z).translate(-p.x, -p.y);

        setCTM(g, g.getCTM().multiply(k));

	if(typeof(stateTf) == "undefined")
		stateTf = g.getCTM().inverse();

	stateTf = stateTf.multiply(k.inverse());
}

/**
 * Handle mouse move event.
 */
function handleMouseMove(evt) {
	if(evt.preventDefault)
		evt.preventDefault();

	evt.returnValue = false;

	var svgDoc = evt.target.ownerDocument;

	var g = getRoot(svgDoc);

	if(state == 'pan' && enablePan) {
		// Pan mode
		var p = getEventPoint(evt).matrixTransform(stateTf);

		setCTM(g, stateTf.inverse().translate(p.x - stateOrigin.x, p.y - stateOrigin.y));
	} else if(state == 'drag' && enableDrag) {
		// Drag mode
		var p = getEventPoint(evt).matrixTransform(g.getCTM().inverse());

		setCTM(stateTarget, root.createSVGMatrix().translate(p.x - stateOrigin.x, p.y - stateOrigin.y).multiply(g.getCTM().inverse()).multiply(stateTarget.getCTM()));

		stateOrigin = p;
	}
}

/**
 * Handle click event.
 */
function handleMouseDown(evt) {
	if(evt.preventDefault)
		evt.preventDefault();

	evt.returnValue = false;

	var svgDoc = evt.target.ownerDocument;

	var g = getRoot(svgDoc);

	if(
		evt.target.tagName == "svg" 
		|| !enableDrag // Pan anyway when drag is disabled and the user clicked on an element 
	) {
		// Pan mode
		state = 'pan';

		stateTf = g.getCTM().inverse();

		stateOrigin = getEventPoint(evt).matrixTransform(stateTf);
	} else {
		// Drag mode
		state = 'drag';

		stateTarget = evt.target;

		stateTf = g.getCTM().inverse();

		stateOrigin = getEventPoint(evt).matrixTransform(stateTf);
	}
}

/**
 * Handle mouse button release event.
 */
function handleMouseUp(evt) {
	if(evt.preventDefault)
		evt.preventDefault();

	evt.returnValue = false;

	var svgDoc = evt.target.ownerDocument;

	if(state == 'pan' || state == 'drag') {
		// Quit pan mode
		state = '';
	}
}

]]></script><g id="viewport" transform="scale(0.5,0.5) translate(0,0)"><g id="graph0" class="graph" transform="scale(1 1) rotate(0) translate(4 955)">
<title>snakes_ladders</title>
<polygon fill="white" stroke="none" points="-4,4 -4,-955 1302.62,-955 1302.62,4 -4,4"/>
<g id="clust1" class="cluster"><title>cluster_L</title>
<polygon fill="none" stroke="black" points="8,-791 8,-943 518,-943 518,-791 8,-791"/>
</g>
<!-- L -->
<g id="node1" class="node"><title>L</title>
<polygon fill="#f8f8f8" stroke="black" points="510.188,-935 15.8125,-935 15.8125,-799 510.188,-799 510.188,-935"/>
<text text-anchor="start" x="23.9062" y="-905.4" font-family="Times,serif" font-size="32.00">File: snakes_ladders</text>
<text text-anchor="start" x="23.9062" y="-873.4" font-family="Times,serif" font-size="32.00">Type: inuse_space</text>
<text text-anchor="start" x="23.9062" y="-841.4" font-family="Times,serif" font-size="32.00">228.46kB of 228.46kB total ( &#160;100%)</text>
<text text-anchor="start" x="23.9062" y="-809.4" font-family="Times,serif" font-size="32.00">Dropped 21 nodes (cum &lt;= 1.14kB)</text>
</g>
<!-- N1 -->
<g id="node2" class="node"><title>N1</title>
<g id="a_node2"><a xlink:title="runtime.malg (189.29kB)">
<polygon fill="#f8f8f8" stroke="black" points="688.984,-486 489.016,-486 489.016,-430 688.984,-430 688.984,-486"/>
<text text-anchor="middle" x="589" y="-462.8" font-family="Times,serif" font-size="24.00">runtime.malg</text>
<text text-anchor="middle" x="589" y="-438.8" font-family="Times,serif" font-size="24.00">189.29kB(82.86%)</text>
</a>
</g>
</g>
<!-- NN1_0 -->
<g id="node3" class="node"><title>NN1_0</title>
<g id="a_node3"><a xlink:title="189.29kB">
<polygon fill="#f8f8f8" stroke="black" points="616,-380 566,-380 562,-376 562,-344 612,-344 616,-348 616,-380"/>
<polyline fill="none" stroke="black" points="612,-376 562,-376 "/>
<polyline fill="none" stroke="black" points="612,-376 612,-344 "/>
<polyline fill="none" stroke="black" points="612,-376 616,-380 "/>
<text text-anchor="middle" x="589" y="-359.6" font-family="Times,serif" font-size="8.00">416B</text>
</a>
</g>
</g>
<!-- N1&#45;&gt;NN1_0 -->
<g id="edge1" class="edge"><title>N1&#45;&gt;NN1_0</title>
<g id="a_edge1"><a xlink:title=" 189.29kB">
<path fill="none" stroke="black" d="M589,-429.811C589,-417.398 589,-402.727 589,-390.3"/>
<polygon fill="black" stroke="black" points="592.5,-390.07 589,-380.07 585.5,-390.07 592.5,-390.07"/>
</a>
</g>
<g id="a_edge1&#45;label"><a xlink:title=" 189.29kB">
<text text-anchor="middle" x="618.169" y="-400.8" font-family="Times,serif" font-size="14.00"> 189.29kB</text>
</a>
</g>
</g>
<!-- N2 -->
<g id="node4" class="node"><title>N2</title>
<g id="a_node4"><a xlink:title="runtime.allgadd (12.65kB)">
<polygon fill="#f8f8f8" stroke="black" points="809.159,-476 706.841,-476 706.841,-440 809.159,-440 809.159,-476"/>
<text text-anchor="middle" x="758" y="-460.6" font-family="Times,serif" font-size="13.00">runtime.allgadd</text>
<text text-anchor="middle" x="758" y="-447.6" font-family="Times,serif" font-size="13.00">12.65kB(5.54%)</text>
</a>
</g>
</g>
<!-- NN2_0 -->
<g id="node5" class="node"><title>NN2_0</title>
<g id="a_node5"><a xlink:title="12.65kB">
<polygon fill="#f8f8f8" stroke="black" points="785,-380 735,-380 731,-376 731,-344 781,-344 785,-348 785,-380"/>
<polyline fill="none" stroke="black" points="781,-376 731,-376 "/>
<polyline fill="none" stroke="black" points="781,-376 781,-344 "/>
<polyline fill="none" stroke="black" points="781,-376 785,-380 "/>
<text text-anchor="middle" x="758" y="-359.6" font-family="Times,serif" font-size="8.00">4kB</text>
</a>
</g>
</g>
<!-- N2&#45;&gt;NN2_0 -->
<g id="edge2" class="edge"><title>N2&#45;&gt;NN2_0</title>
<g id="a_edge2"><a xlink:title=" 12.65kB">
<path fill="none" stroke="black" d="M758,-439.759C758,-425.978 758,-406.4 758,-390.465"/>
<polygon fill="black" stroke="black" points="761.5,-390.132 758,-380.132 754.5,-390.132 761.5,-390.132"/>
</a>
</g>
<g id="a_edge2&#45;label"><a xlink:title=" 12.65kB">
<text text-anchor="middle" x="783.669" y="-400.8" font-family="Times,serif" font-size="14.00"> 12.65kB</text>
</a>
</g>
</g>
<!-- N3 -->
<g id="node6" class="node"><title>N3</title>
<g id="a_node6"><a xlink:title="main.addToVisited (12.12kB)">
<polygon fill="#f8f8f8" stroke="black" points="1081.33,-574.5 966.674,-574.5 966.674,-538.5 1081.33,-538.5 1081.33,-574.5"/>
<text text-anchor="middle" x="1024" y="-559.1" font-family="Times,serif" font-size="13.00">main.addToVisited</text>
<text text-anchor="middle" x="1024" y="-546.1" font-family="Times,serif" font-size="13.00">12.12kB(5.30%)</text>
</a>
</g>
</g>
<!-- NN3_0 -->
<g id="node7" class="node"><title>NN3_0</title>
<g id="a_node7"><a xlink:title="4.09kB">
<polygon fill="#f8f8f8" stroke="black" points="979,-476 929,-476 925,-472 925,-440 975,-440 979,-444 979,-476"/>
<polyline fill="none" stroke="black" points="975,-472 925,-472 "/>
<polyline fill="none" stroke="black" points="975,-472 975,-440 "/>
<polyline fill="none" stroke="black" points="975,-472 979,-476 "/>
<text text-anchor="middle" x="952" y="-455.6" font-family="Times,serif" font-size="8.00">176B</text>
</a>
</g>
</g>
<!-- N3&#45;&gt;NN3_0 -->
<g id="edge3" class="edge"><title>N3&#45;&gt;NN3_0</title>
<g id="a_edge3"><a xlink:title=" 4.09kB">
<path fill="none" stroke="black" d="M996.897,-538.463C989.272,-532.686 981.482,-525.717 975.662,-518 968.511,-508.519 963.191,-496.583 959.426,-485.932"/>
<polygon fill="black" stroke="black" points="962.696,-484.67 956.284,-476.236 956.037,-486.828 962.696,-484.67"/>
</a>
</g>
<g id="a_edge3&#45;label"><a xlink:title=" 4.09kB">
<text text-anchor="middle" x="998.169" y="-506.8" font-family="Times,serif" font-size="14.00"> 4.09kB</text>
</a>
</g>
</g>
<!-- NN3_1 -->
<g id="node8" class="node"><title>NN3_1</title>
<g id="a_node8"><a xlink:title="4.02kB">
<polygon fill="#f8f8f8" stroke="black" points="1051,-476 1001,-476 997,-472 997,-440 1047,-440 1051,-444 1051,-476"/>
<polyline fill="none" stroke="black" points="1047,-472 997,-472 "/>
<polyline fill="none" stroke="black" points="1047,-472 1047,-440 "/>
<polyline fill="none" stroke="black" points="1047,-472 1051,-476 "/>
<text text-anchor="middle" x="1024" y="-455.6" font-family="Times,serif" font-size="8.00">48B</text>
</a>
</g>
</g>
<!-- N3&#45;&gt;NN3_1 -->
<g id="edge4" class="edge"><title>N3&#45;&gt;NN3_1</title>
<g id="a_edge4"><a xlink:title=" 4.02kB">
<path fill="none" stroke="black" d="M1024,-538.248C1024,-523.839 1024,-503.035 1024,-486.358"/>
<polygon fill="black" stroke="black" points="1027.5,-486.103 1024,-476.103 1020.5,-486.103 1027.5,-486.103"/>
</a>
</g>
<g id="a_edge4&#45;label"><a xlink:title=" 4.02kB">
<text text-anchor="middle" x="1046.17" y="-506.8" font-family="Times,serif" font-size="14.00"> 4.02kB</text>
</a>
</g>
</g>
<!-- NN3_2 -->
<g id="node9" class="node"><title>NN3_2</title>
<g id="a_node9"><a xlink:title="4.01kB">
<polygon fill="#f8f8f8" stroke="black" points="1123,-476 1073,-476 1069,-472 1069,-440 1119,-440 1123,-444 1123,-476"/>
<polyline fill="none" stroke="black" points="1119,-472 1069,-472 "/>
<polyline fill="none" stroke="black" points="1119,-472 1119,-440 "/>
<polyline fill="none" stroke="black" points="1119,-472 1123,-476 "/>
<text text-anchor="middle" x="1096" y="-455.6" font-family="Times,serif" font-size="8.00">16B</text>
</a>
</g>
</g>
<!-- N3&#45;&gt;NN3_2 -->
<g id="edge5" class="edge"><title>N3&#45;&gt;NN3_2</title>
<g id="a_edge5"><a xlink:title=" 4.01kB">
<path fill="none" stroke="black" d="M1051.14,-538.225C1058.63,-532.484 1066.26,-525.594 1072,-518 1079.17,-508.505 1084.56,-496.568 1088.39,-485.919"/>
<polygon fill="black" stroke="black" points="1091.78,-486.819 1091.59,-476.226 1085.13,-484.621 1091.78,-486.819"/>
</a>
</g>
<g id="a_edge5&#45;label"><a xlink:title=" 4.01kB">
<text text-anchor="middle" x="1102.17" y="-506.8" font-family="Times,serif" font-size="14.00"> 4.01kB</text>
</a>
</g>
</g>
<!-- N4 -->
<g id="node10" class="node"><title>N4</title>
<g id="a_node10"><a xlink:title="bufio.(*Scanner).Scan (6.33kB)">
<polygon fill="#f8f8f8" stroke="black" points="1215.75,-380 1102.25,-380 1102.25,-344 1215.75,-344 1215.75,-380"/>
<text text-anchor="middle" x="1159" y="-364.2" font-family="Times,serif" font-size="11.00">bufio.(*Scanner).Scan</text>
<text text-anchor="middle" x="1159" y="-353.2" font-family="Times,serif" font-size="11.00">6.33kB(2.77%)</text>
</a>
</g>
</g>
<!-- NN4_0 -->
<g id="node11" class="node"><title>NN4_0</title>
<g id="a_node11"><a xlink:title="6.33kB">
<polygon fill="#f8f8f8" stroke="black" points="1186,-294 1136,-294 1132,-290 1132,-258 1182,-258 1186,-262 1186,-294"/>
<polyline fill="none" stroke="black" points="1182,-290 1132,-290 "/>
<polyline fill="none" stroke="black" points="1182,-290 1182,-258 "/>
<polyline fill="none" stroke="black" points="1182,-290 1186,-294 "/>
<text text-anchor="middle" x="1159" y="-273.6" font-family="Times,serif" font-size="8.00">4kB</text>
</a>
</g>
</g>
<!-- N4&#45;&gt;NN4_0 -->
<g id="edge6" class="edge"><title>N4&#45;&gt;NN4_0</title>
<g id="a_edge6"><a xlink:title=" 6.33kB">
<path fill="none" stroke="black" d="M1159,-343.595C1159,-332.257 1159,-317.227 1159,-304.315"/>
<polygon fill="black" stroke="black" points="1162.5,-304.095 1159,-294.095 1155.5,-304.095 1162.5,-304.095"/>
</a>
</g>
<g id="a_edge6&#45;label"><a xlink:title=" 6.33kB">
<text text-anchor="middle" x="1181.17" y="-314.8" font-family="Times,serif" font-size="14.00"> 6.33kB</text>
</a>
</g>
</g>
<!-- N5 -->
<g id="node12" class="node"><title>N5</title>
<g id="a_node12"><a xlink:title="sync.runtime_Semacquire (4.04kB)">
<polygon fill="#f8f8f8" stroke="black" points="932.05,-122 801.95,-122 801.95,-86 932.05,-86 932.05,-122"/>
<text text-anchor="middle" x="867" y="-106.2" font-family="Times,serif" font-size="11.00">sync.runtime_Semacquire</text>
<text text-anchor="middle" x="867" y="-95.2" font-family="Times,serif" font-size="11.00">4.04kB(1.77%)</text>
</a>
</g>
</g>
<!-- NN5_0 -->
<g id="node13" class="node"><title>NN5_0</title>
<g id="a_node13"><a xlink:title="4.04kB">
<polygon fill="#f8f8f8" stroke="black" points="894,-36 844,-36 840,-32 840,-0 890,-0 894,-4 894,-36"/>
<polyline fill="none" stroke="black" points="890,-32 840,-32 "/>
<polyline fill="none" stroke="black" points="890,-32 890,-0 "/>
<polyline fill="none" stroke="black" points="890,-32 894,-36 "/>
<text text-anchor="middle" x="867" y="-15.6" font-family="Times,serif" font-size="8.00">80B</text>
</a>
</g>
</g>
<!-- N5&#45;&gt;NN5_0 -->
<g id="edge7" class="edge"><title>N5&#45;&gt;NN5_0</title>
<g id="a_edge7"><a xlink:title=" 4.04kB">
<path fill="none" stroke="black" d="M867,-85.5951C867,-74.2572 867,-59.2271 867,-46.3153"/>
<polygon fill="black" stroke="black" points="870.5,-46.0951 867,-36.0952 863.5,-46.0952 870.5,-46.0951"/>
</a>
</g>
<g id="a_edge7&#45;label"><a xlink:title=" 4.04kB">
<text text-anchor="middle" x="889.169" y="-56.8" font-family="Times,serif" font-size="14.00"> 4.04kB</text>
</a>
</g>
</g>
<!-- N6 -->
<g id="node14" class="node"><title>N6</title>
<g id="a_node14"><a xlink:title="main.RunFromFile (10.35kB)">
<polygon fill="#f8f8f8" stroke="black" points="1298.74,-577 1197.26,-577 1197.26,-536 1298.74,-536 1298.74,-577"/>
<text text-anchor="middle" x="1248" y="-564.2" font-family="Times,serif" font-size="11.00">main.RunFromFile</text>
<text text-anchor="middle" x="1248" y="-553.2" font-family="Times,serif" font-size="11.00">4.02kB(1.76%)</text>
<text text-anchor="middle" x="1248" y="-542.2" font-family="Times,serif" font-size="11.00">of 10.35kB(4.53%)</text>
</a>
</g>
</g>
<!-- N6&#45;&gt;N4 -->
<g id="edge20" class="edge"><title>N6&#45;&gt;N4</title>
<g id="a_edge20"><a xlink:title="main.RunFromFile &#45;&gt; bufio.(*Scanner).Scan (6.33kB)">
<path fill="none" stroke="black" d="M1214.52,-535.724C1197.37,-523.669 1177.98,-506.616 1167.66,-486 1152.66,-456.016 1152.77,-416.68 1155.12,-390.659"/>
<polygon fill="black" stroke="black" points="1158.63,-390.706 1156.23,-380.389 1151.68,-389.956 1158.63,-390.706"/>
</a>
</g>
<g id="a_edge20&#45;label"><a xlink:title="main.RunFromFile &#45;&gt; bufio.(*Scanner).Scan (6.33kB)">
<text text-anchor="middle" x="1189.17" y="-453.8" font-family="Times,serif" font-size="14.00"> 6.33kB</text>
</a>
</g>
</g>
<!-- NN6_0 -->
<g id="node15" class="node"><title>NN6_0</title>
<g id="a_node15"><a xlink:title="4.02kB">
<polygon fill="#f8f8f8" stroke="black" points="1275,-476 1225,-476 1221,-472 1221,-440 1271,-440 1275,-444 1275,-476"/>
<polyline fill="none" stroke="black" points="1271,-472 1221,-472 "/>
<polyline fill="none" stroke="black" points="1271,-472 1271,-440 "/>
<polyline fill="none" stroke="black" points="1271,-472 1275,-476 "/>
<text text-anchor="middle" x="1248" y="-455.6" font-family="Times,serif" font-size="8.00">48B</text>
</a>
</g>
</g>
<!-- N6&#45;&gt;NN6_0 -->
<g id="edge8" class="edge"><title>N6&#45;&gt;NN6_0</title>
<g id="a_edge8"><a xlink:title=" 4.02kB">
<path fill="none" stroke="black" d="M1248,-535.972C1248,-521.742 1248,-502.273 1248,-486.475"/>
<polygon fill="black" stroke="black" points="1251.5,-486.235 1248,-476.235 1244.5,-486.235 1251.5,-486.235"/>
</a>
</g>
<g id="a_edge8&#45;label"><a xlink:title=" 4.02kB">
<text text-anchor="middle" x="1270.17" y="-506.8" font-family="Times,serif" font-size="14.00"> 4.02kB</text>
</a>
</g>
</g>
<!-- N7 -->
<g id="node16" class="node"><title>N7</title>
<g id="a_node16"><a xlink:title="fmt.Sprintf (4.04kB)">
<polygon fill="#f8f8f8" stroke="black" points="942.992,-663 863.008,-663 863.008,-627 942.992,-627 942.992,-663"/>
<text text-anchor="middle" x="903" y="-646.6" font-family="Times,serif" font-size="8.00">fmt.Sprintf</text>
<text text-anchor="middle" x="903" y="-638.6" font-family="Times,serif" font-size="8.00">0 of 4.04kB(1.77%)</text>
</a>
</g>
</g>
<!-- N8 -->
<g id="node17" class="node"><title>N8</title>
<g id="a_node17"><a xlink:title="fmt.newPrinter (4.04kB)">
<polygon fill="#f8f8f8" stroke="black" points="913.992,-574.5 834.008,-574.5 834.008,-538.5 913.992,-538.5 913.992,-574.5"/>
<text text-anchor="middle" x="874" y="-558.1" font-family="Times,serif" font-size="8.00">fmt.newPrinter</text>
<text text-anchor="middle" x="874" y="-550.1" font-family="Times,serif" font-size="8.00">0 of 4.04kB(1.77%)</text>
</a>
</g>
</g>
<!-- N7&#45;&gt;N8 -->
<g id="edge21" class="edge"><title>N7&#45;&gt;N8</title>
<g id="a_edge21"><a xlink:title="fmt.Sprintf &#45;&gt; fmt.newPrinter (4.04kB)">
<path fill="none" stroke="black" d="M897.271,-626.91C893.179,-614.708 887.596,-598.054 882.924,-584.119"/>
<polygon fill="black" stroke="black" points="886.215,-582.923 879.718,-574.554 879.578,-585.148 886.215,-582.923"/>
</a>
</g>
<g id="a_edge21&#45;label"><a xlink:title="fmt.Sprintf &#45;&gt; fmt.newPrinter (4.04kB)">
<text text-anchor="middle" x="914.169" y="-597.8" font-family="Times,serif" font-size="14.00"> 4.04kB</text>
</a>
</g>
</g>
<!-- N19 -->
<g id="node28" class="node"><title>N19</title>
<g id="a_node28"><a xlink:title="sync.(*Pool).Get (4.04kB)">
<polygon fill="#f8f8f8" stroke="black" points="906.992,-476 827.008,-476 827.008,-440 906.992,-440 906.992,-476"/>
<text text-anchor="middle" x="867" y="-459.6" font-family="Times,serif" font-size="8.00">sync.(*Pool).Get</text>
<text text-anchor="middle" x="867" y="-451.6" font-family="Times,serif" font-size="8.00">0 of 4.04kB(1.77%)</text>
</a>
</g>
</g>
<!-- N8&#45;&gt;N19 -->
<g id="edge22" class="edge"><title>N8&#45;&gt;N19</title>
<g id="a_edge22"><a xlink:title="fmt.newPrinter &#45;&gt; sync.(*Pool).Get (4.04kB)">
<path fill="none" stroke="black" d="M872.749,-538.248C871.703,-523.839 870.194,-503.035 868.984,-486.358"/>
<polygon fill="black" stroke="black" points="872.455,-485.823 868.241,-476.103 865.473,-486.33 872.455,-485.823"/>
</a>
</g>
<g id="a_edge22&#45;label"><a xlink:title="fmt.newPrinter &#45;&gt; sync.(*Pool).Get (4.04kB)">
<text text-anchor="middle" x="894.169" y="-506.8" font-family="Times,serif" font-size="14.00"> 4.04kB</text>
</a>
</g>
</g>
<!-- N9 -->
<g id="node18" class="node"><title>N9</title>
<g id="a_node18"><a xlink:title="main.(*gameBoard).findShortest (12.12kB)">
<polygon fill="#f8f8f8" stroke="black" points="1084.37,-663 963.629,-663 963.629,-627 1084.37,-627 1084.37,-663"/>
<text text-anchor="middle" x="1024" y="-646.6" font-family="Times,serif" font-size="8.00">main.(*gameBoard).findShortest</text>
<text text-anchor="middle" x="1024" y="-638.6" font-family="Times,serif" font-size="8.00">0 of 12.12kB(5.30%)</text>
</a>
</g>
</g>
<!-- N9&#45;&gt;N3 -->
<g id="edge15" class="edge"><title>N9&#45;&gt;N3</title>
<g id="a_edge15"><a xlink:title="main.(*gameBoard).findShortest &#45;&gt; main.addToVisited (12.12kB)">
<path fill="none" stroke="black" d="M1024,-626.91C1024,-614.945 1024,-598.699 1024,-584.933"/>
<polygon fill="black" stroke="black" points="1027.5,-584.554 1024,-574.554 1020.5,-584.554 1027.5,-584.554"/>
</a>
</g>
<g id="a_edge15&#45;label"><a xlink:title="main.(*gameBoard).findShortest &#45;&gt; main.addToVisited (12.12kB)">
<text text-anchor="middle" x="1049.67" y="-597.8" font-family="Times,serif" font-size="14.00"> 12.12kB</text>
</a>
</g>
</g>
<!-- N10 -->
<g id="node19" class="node"><title>N10</title>
<g id="a_node19"><a xlink:title="main.RunFromFile.func1 (16.16kB)">
<polygon fill="#f8f8f8" stroke="black" points="1072.83,-749 975.171,-749 975.171,-713 1072.83,-713 1072.83,-749"/>
<text text-anchor="middle" x="1024" y="-732.6" font-family="Times,serif" font-size="8.00">main.RunFromFile.func1</text>
<text text-anchor="middle" x="1024" y="-724.6" font-family="Times,serif" font-size="8.00">0 of 16.16kB(7.07%)</text>
</a>
</g>
</g>
<!-- N10&#45;&gt;N7 -->
<g id="edge23" class="edge"><title>N10&#45;&gt;N7</title>
<g id="a_edge23"><a xlink:title="main.RunFromFile.func1 &#45;&gt; fmt.Sprintf (4.04kB)">
<path fill="none" stroke="black" d="M999.222,-712.799C981.033,-700.172 956.133,-682.886 936.22,-669.062"/>
<polygon fill="black" stroke="black" points="937.956,-666.006 927.745,-663.178 933.964,-671.756 937.956,-666.006"/>
</a>
</g>
<g id="a_edge23&#45;label"><a xlink:title="main.RunFromFile.func1 &#45;&gt; fmt.Sprintf (4.04kB)">
<text text-anchor="middle" x="993.169" y="-683.8" font-family="Times,serif" font-size="14.00"> 4.04kB</text>
</a>
</g>
</g>
<!-- N10&#45;&gt;N9 -->
<g id="edge16" class="edge"><title>N10&#45;&gt;N9</title>
<g id="a_edge16"><a xlink:title="main.RunFromFile.func1 &#45;&gt; main.(*gameBoard).findShortest (12.12kB)">
<path fill="none" stroke="black" d="M1024,-712.595C1024,-701.257 1024,-686.227 1024,-673.315"/>
<polygon fill="black" stroke="black" points="1027.5,-673.095 1024,-663.095 1020.5,-673.095 1027.5,-673.095"/>
</a>
</g>
<g id="a_edge16&#45;label"><a xlink:title="main.RunFromFile.func1 &#45;&gt; main.(*gameBoard).findShortest (12.12kB)">
<text text-anchor="middle" x="1049.67" y="-683.8" font-family="Times,serif" font-size="14.00"> 12.12kB</text>
</a>
</g>
</g>
<!-- N11 -->
<g id="node20" class="node"><title>N11</title>
<g id="a_node20"><a xlink:title="main.main (10.35kB)">
<polygon fill="#f8f8f8" stroke="black" points="1237.99,-663 1154.01,-663 1154.01,-627 1237.99,-627 1237.99,-663"/>
<text text-anchor="middle" x="1196" y="-646.6" font-family="Times,serif" font-size="8.00">main.main</text>
<text text-anchor="middle" x="1196" y="-638.6" font-family="Times,serif" font-size="8.00">0 of 10.35kB(4.53%)</text>
</a>
</g>
</g>
<!-- N11&#45;&gt;N6 -->
<g id="edge17" class="edge"><title>N11&#45;&gt;N6</title>
<g id="a_edge17"><a xlink:title="main.main &#45;&gt; main.RunFromFile (10.35kB)">
<path fill="none" stroke="black" d="M1206.27,-626.91C1213.25,-615.309 1222.64,-599.686 1230.75,-586.199"/>
<polygon fill="black" stroke="black" points="1233.96,-587.653 1236.11,-577.279 1227.96,-584.046 1233.96,-587.653"/>
</a>
</g>
<g id="a_edge17&#45;label"><a xlink:title="main.main &#45;&gt; main.RunFromFile (10.35kB)">
<text text-anchor="middle" x="1250.67" y="-597.8" font-family="Times,serif" font-size="14.00"> 10.35kB</text>
</a>
</g>
</g>
<!-- N12 -->
<g id="node21" class="node"><title>N12</title>
<g id="a_node21"><a xlink:title="runtime.goexit (26.51kB)">
<polygon fill="#f8f8f8" stroke="black" points="1067.7,-885 980.3,-885 980.3,-849 1067.7,-849 1067.7,-885"/>
<text text-anchor="middle" x="1024" y="-868.6" font-family="Times,serif" font-size="8.00">runtime.goexit</text>
<text text-anchor="middle" x="1024" y="-860.6" font-family="Times,serif" font-size="8.00">0 of 26.51kB(11.60%)</text>
</a>
</g>
</g>
<!-- N12&#45;&gt;N10 -->
<g id="edge13" class="edge"><title>N12&#45;&gt;N10</title>
<g id="a_edge13"><a xlink:title="runtime.goexit &#45;&gt; main.RunFromFile.func1 (16.16kB)">
<path fill="none" stroke="black" d="M1024,-848.756C1024,-826.142 1024,-786.203 1024,-759.419"/>
<polygon fill="black" stroke="black" points="1027.5,-759.178 1024,-749.178 1020.5,-759.178 1027.5,-759.178"/>
</a>
</g>
<g id="a_edge13&#45;label"><a xlink:title="runtime.goexit &#45;&gt; main.RunFromFile.func1 (16.16kB)">
<text text-anchor="middle" x="1049.67" y="-769.8" font-family="Times,serif" font-size="14.00"> 16.16kB</text>
</a>
</g>
</g>
<!-- N13 -->
<g id="node22" class="node"><title>N13</title>
<g id="a_node22"><a xlink:title="runtime.main (10.35kB)">
<polygon fill="#f8f8f8" stroke="black" points="1179.99,-749 1096.01,-749 1096.01,-713 1179.99,-713 1179.99,-749"/>
<text text-anchor="middle" x="1138" y="-732.6" font-family="Times,serif" font-size="8.00">runtime.main</text>
<text text-anchor="middle" x="1138" y="-724.6" font-family="Times,serif" font-size="8.00">0 of 10.35kB(4.53%)</text>
</a>
</g>
</g>
<!-- N12&#45;&gt;N13 -->
<g id="edge18" class="edge"><title>N12&#45;&gt;N13</title>
<g id="a_edge18"><a xlink:title="runtime.goexit &#45;&gt; runtime.main (10.35kB)">
<path fill="none" stroke="black" d="M1038.67,-848.756C1058.51,-825.439 1094.02,-783.701 1116.77,-756.959"/>
<polygon fill="black" stroke="black" points="1119.57,-759.062 1123.39,-749.178 1114.24,-754.526 1119.57,-759.062"/>
</a>
</g>
<g id="a_edge18&#45;label"><a xlink:title="runtime.goexit &#45;&gt; runtime.main (10.35kB)">
<text text-anchor="middle" x="1132.67" y="-769.8" font-family="Times,serif" font-size="14.00"> 10.35kB</text>
</a>
</g>
</g>
<!-- N13&#45;&gt;N11 -->
<g id="edge19" class="edge"><title>N13&#45;&gt;N11</title>
<g id="a_edge19"><a xlink:title="runtime.main &#45;&gt; main.main (10.35kB)">
<path fill="none" stroke="black" d="M1150.02,-712.595C1158.24,-700.69 1169.27,-684.715 1178.47,-671.395"/>
<polygon fill="black" stroke="black" points="1181.39,-673.313 1184.2,-663.095 1175.63,-669.335 1181.39,-673.313"/>
</a>
</g>
<g id="a_edge19&#45;label"><a xlink:title="runtime.main &#45;&gt; main.main (10.35kB)">
<text text-anchor="middle" x="1195.67" y="-683.8" font-family="Times,serif" font-size="14.00"> 10.35kB</text>
</a>
</g>
</g>
<!-- N14 -->
<g id="node23" class="node"><title>N14</title>
<g id="a_node23"><a xlink:title="runtime.newproc.func1 (201.95kB)">
<polygon fill="#f8f8f8" stroke="black" points="634.992,-663 543.008,-663 543.008,-627 634.992,-627 634.992,-663"/>
<text text-anchor="middle" x="589" y="-646.6" font-family="Times,serif" font-size="8.00">runtime.newproc.func1</text>
<text text-anchor="middle" x="589" y="-638.6" font-family="Times,serif" font-size="8.00">0 of 201.95kB(88.40%)</text>
</a>
</g>
</g>
<!-- N15 -->
<g id="node24" class="node"><title>N15</title>
<g id="a_node24"><a xlink:title="runtime.newproc1 (201.95kB)">
<polygon fill="#f8f8f8" stroke="black" points="634.992,-574.5 543.008,-574.5 543.008,-538.5 634.992,-538.5 634.992,-574.5"/>
<text text-anchor="middle" x="589" y="-558.1" font-family="Times,serif" font-size="8.00">runtime.newproc1</text>
<text text-anchor="middle" x="589" y="-550.1" font-family="Times,serif" font-size="8.00">0 of 201.95kB(88.40%)</text>
</a>
</g>
</g>
<!-- N14&#45;&gt;N15 -->
<g id="edge9" class="edge"><title>N14&#45;&gt;N15</title>
<g id="a_edge9"><a xlink:title="runtime.newproc.func1 &#45;&gt; runtime.newproc1 (201.95kB)">
<path fill="none" stroke="black" stroke-width="5" d="M589,-626.91C589,-614.945 589,-598.699 589,-584.933"/>
<polygon fill="black" stroke="black" stroke-width="5" points="593.375,-584.554 589,-574.554 584.625,-584.554 593.375,-584.554"/>
</a>
</g>
<g id="a_edge9&#45;label"><a xlink:title="runtime.newproc.func1 &#45;&gt; runtime.newproc1 (201.95kB)">
<text text-anchor="middle" x="618.169" y="-597.8" font-family="Times,serif" font-size="14.00"> 201.95kB</text>
</a>
</g>
</g>
<!-- N15&#45;&gt;N1 -->
<g id="edge12" class="edge"><title>N15&#45;&gt;N1</title>
<g id="a_edge12"><a xlink:title="runtime.newproc1 &#45;&gt; runtime.malg (189.29kB)">
<path fill="none" stroke="black" stroke-width="5" d="M589,-538.248C589,-526.644 589,-510.892 589,-496.488"/>
<polygon fill="black" stroke="black" stroke-width="5" points="593.375,-496.316 589,-486.316 584.625,-496.316 593.375,-496.316"/>
</a>
</g>
<g id="a_edge12&#45;label"><a xlink:title="runtime.newproc1 &#45;&gt; runtime.malg (189.29kB)">
<text text-anchor="middle" x="618.169" y="-506.8" font-family="Times,serif" font-size="14.00"> 189.29kB</text>
</a>
</g>
</g>
<!-- N15&#45;&gt;N2 -->
<g id="edge14" class="edge"><title>N15&#45;&gt;N2</title>
<g id="a_edge14"><a xlink:title="runtime.newproc1 &#45;&gt; runtime.allgadd (12.65kB)">
<path fill="none" stroke="black" d="M618.825,-538.47C646.855,-522.465 688.95,-498.428 719.504,-480.982"/>
<polygon fill="black" stroke="black" points="721.241,-484.02 728.19,-476.022 717.77,-477.941 721.241,-484.02"/>
</a>
</g>
<g id="a_edge14&#45;label"><a xlink:title="runtime.newproc1 &#45;&gt; runtime.allgadd (12.65kB)">
<text text-anchor="middle" x="704.669" y="-506.8" font-family="Times,serif" font-size="14.00"> 12.65kB</text>
</a>
</g>
</g>
<!-- N16 -->
<g id="node25" class="node"><title>N16</title>
<g id="a_node25"><a xlink:title="runtime.startTheWorldWithSema (201.95kB)">
<polygon fill="#f8f8f8" stroke="black" points="650.348,-885 527.652,-885 527.652,-849 650.348,-849 650.348,-885"/>
<text text-anchor="middle" x="589" y="-868.6" font-family="Times,serif" font-size="8.00">runtime.startTheWorldWithSema</text>
<text text-anchor="middle" x="589" y="-860.6" font-family="Times,serif" font-size="8.00">0 of 201.95kB(88.40%)</text>
</a>
</g>
</g>
<!-- N17 -->
<g id="node26" class="node"><title>N17</title>
<g id="a_node26"><a xlink:title="runtime.systemstack (201.95kB)">
<polygon fill="#f8f8f8" stroke="black" points="634.992,-749 543.008,-749 543.008,-713 634.992,-713 634.992,-749"/>
<text text-anchor="middle" x="589" y="-732.6" font-family="Times,serif" font-size="8.00">runtime.systemstack</text>
<text text-anchor="middle" x="589" y="-724.6" font-family="Times,serif" font-size="8.00">0 of 201.95kB(88.40%)</text>
</a>
</g>
</g>
<!-- N16&#45;&gt;N17 -->
<g id="edge10" class="edge"><title>N16&#45;&gt;N17</title>
<g id="a_edge10"><a xlink:title="runtime.startTheWorldWithSema &#45;&gt; runtime.systemstack (201.95kB)">
<path fill="none" stroke="black" stroke-width="5" d="M589,-848.756C589,-826.142 589,-786.203 589,-759.419"/>
<polygon fill="black" stroke="black" stroke-width="5" points="593.375,-759.178 589,-749.178 584.625,-759.178 593.375,-759.178"/>
</a>
</g>
<g id="a_edge10&#45;label"><a xlink:title="runtime.startTheWorldWithSema &#45;&gt; runtime.systemstack (201.95kB)">
<text text-anchor="middle" x="618.169" y="-769.8" font-family="Times,serif" font-size="14.00"> 201.95kB</text>
</a>
</g>
</g>
<!-- N17&#45;&gt;N14 -->
<g id="edge11" class="edge"><title>N17&#45;&gt;N14</title>
<g id="a_edge11"><a xlink:title="runtime.systemstack &#45;&gt; runtime.newproc.func1 (201.95kB)">
<path fill="none" stroke="black" stroke-width="5" d="M589,-712.595C589,-701.257 589,-686.227 589,-673.315"/>
<polygon fill="black" stroke="black" stroke-width="5" points="593.375,-673.095 589,-663.095 584.625,-673.095 593.375,-673.095"/>
</a>
</g>
<g id="a_edge11&#45;label"><a xlink:title="runtime.systemstack &#45;&gt; runtime.newproc.func1 (201.95kB)">
<text text-anchor="middle" x="618.169" y="-683.8" font-family="Times,serif" font-size="14.00"> 201.95kB</text>
</a>
</g>
</g>
<!-- N18 -->
<g id="node27" class="node"><title>N18</title>
<g id="a_node27"><a xlink:title="sync.(*Mutex).Lock (4.04kB)">
<polygon fill="#f8f8f8" stroke="black" points="907.817,-208 826.183,-208 826.183,-172 907.817,-172 907.817,-208"/>
<text text-anchor="middle" x="867" y="-191.6" font-family="Times,serif" font-size="8.00">sync.(*Mutex).Lock</text>
<text text-anchor="middle" x="867" y="-183.6" font-family="Times,serif" font-size="8.00">0 of 4.04kB(1.77%)</text>
</a>
</g>
</g>
<!-- N18&#45;&gt;N5 -->
<g id="edge24" class="edge"><title>N18&#45;&gt;N5</title>
<g id="a_edge24"><a xlink:title="sync.(*Mutex).Lock &#45;&gt; sync.runtime_Semacquire (4.04kB)">
<path fill="none" stroke="black" d="M867,-171.595C867,-160.257 867,-145.227 867,-132.315"/>
<polygon fill="black" stroke="black" points="870.5,-132.095 867,-122.095 863.5,-132.095 870.5,-132.095"/>
</a>
</g>
<g id="a_edge24&#45;label"><a xlink:title="sync.(*Mutex).Lock &#45;&gt; sync.runtime_Semacquire (4.04kB)">
<text text-anchor="middle" x="889.169" y="-142.8" font-family="Times,serif" font-size="14.00"> 4.04kB</text>
</a>
</g>
</g>
<!-- N20 -->
<g id="node29" class="node"><title>N20</title>
<g id="a_node29"><a xlink:title="sync.(*Pool).pin (4.04kB)">
<polygon fill="#f8f8f8" stroke="black" points="906.992,-380 827.008,-380 827.008,-344 906.992,-344 906.992,-380"/>
<text text-anchor="middle" x="867" y="-363.6" font-family="Times,serif" font-size="8.00">sync.(*Pool).pin</text>
<text text-anchor="middle" x="867" y="-355.6" font-family="Times,serif" font-size="8.00">0 of 4.04kB(1.77%)</text>
</a>
</g>
</g>
<!-- N19&#45;&gt;N20 -->
<g id="edge25" class="edge"><title>N19&#45;&gt;N20</title>
<g id="a_edge25"><a xlink:title="sync.(*Pool).Get &#45;&gt; sync.(*Pool).pin (4.04kB)">
<path fill="none" stroke="black" d="M867,-439.759C867,-425.978 867,-406.4 867,-390.465"/>
<polygon fill="black" stroke="black" points="870.5,-390.132 867,-380.132 863.5,-390.132 870.5,-390.132"/>
</a>
</g>
<g id="a_edge25&#45;label"><a xlink:title="sync.(*Pool).Get &#45;&gt; sync.(*Pool).pin (4.04kB)">
<text text-anchor="middle" x="889.169" y="-400.8" font-family="Times,serif" font-size="14.00"> 4.04kB</text>
</a>
</g>
</g>
<!-- N21 -->
<g id="node30" class="node"><title>N21</title>
<g id="a_node30"><a xlink:title="sync.(*Pool).pinSlow (4.04kB)">
<polygon fill="#f8f8f8" stroke="black" points="909.837,-294 824.163,-294 824.163,-258 909.837,-258 909.837,-294"/>
<text text-anchor="middle" x="867" y="-277.6" font-family="Times,serif" font-size="8.00">sync.(*Pool).pinSlow</text>
<text text-anchor="middle" x="867" y="-269.6" font-family="Times,serif" font-size="8.00">0 of 4.04kB(1.77%)</text>
</a>
</g>
</g>
<!-- N20&#45;&gt;N21 -->
<g id="edge26" class="edge"><title>N20&#45;&gt;N21</title>
<g id="a_edge26"><a xlink:title="sync.(*Pool).pin &#45;&gt; sync.(*Pool).pinSlow (4.04kB)">
<path fill="none" stroke="black" d="M867,-343.595C867,-332.257 867,-317.227 867,-304.315"/>
<polygon fill="black" stroke="black" points="870.5,-304.095 867,-294.095 863.5,-304.095 870.5,-304.095"/>
</a>
</g>
<g id="a_edge26&#45;label"><a xlink:title="sync.(*Pool).pin &#45;&gt; sync.(*Pool).pinSlow (4.04kB)">
<text text-anchor="middle" x="889.169" y="-314.8" font-family="Times,serif" font-size="14.00"> 4.04kB</text>
</a>
</g>
</g>
<!-- N21&#45;&gt;N18 -->
<g id="edge27" class="edge"><title>N21&#45;&gt;N18</title>
<g id="a_edge27"><a xlink:title="sync.(*Pool).pinSlow &#45;&gt; sync.(*Mutex).Lock (4.04kB)">
<path fill="none" stroke="black" d="M867,-257.595C867,-246.257 867,-231.227 867,-218.315"/>
<polygon fill="black" stroke="black" points="870.5,-218.095 867,-208.095 863.5,-218.095 870.5,-218.095"/>
</a>
</g>
<g id="a_edge27&#45;label"><a xlink:title="sync.(*Pool).pinSlow &#45;&gt; sync.(*Mutex).Lock (4.04kB)">
<text text-anchor="middle" x="889.169" y="-228.8" font-family="Times,serif" font-size="14.00"> 4.04kB</text>
</a>
</g>
</g>
</g>
</g></svg>
